/vscmnt/brussel_pixiu_data/_data_brussel/112/vsc11236/PredSimResults/SUBJ06opt3D/weighted-LRposFixed/expIG/worker_03.mot
version=1
nRows=7
nColumns=50
inDegrees=yes
endheader
                time	         pelvis_tilt	         pelvis_list	     pelvis_rotation	           pelvis_tx	           pelvis_ty	           pelvis_tz	       hip_flexion_r	     hip_adduction_r	      hip_rotation_r	        knee_angle_r	       ankle_angle_r	         mtp_angle_r	       hip_flexion_l	     hip_adduction_l	      hip_rotation_l	        knee_angle_l	       ankle_angle_l	         mtp_angle_l	    lumbar_extension	      lumbar_bending	     lumbar_rotation	 ercspn_r/activation	 intobl_r/activation	 extobl_r/activation	    abd_r/activation	    add_r/activation	hamstrings_r/activation	bifemsh_r/activation	glut_max_r/activation	iliopsoas_r/activation	rect_fem_r/activation	  vasti_r/activation	gastroc_r/activation	 soleus_r/activation	tib_ant_r/activation	 ercspn_l/activation	 intobl_l/activation	 extobl_l/activation	    abd_l/activation	    add_l/activation	hamstrings_l/activation	bifemsh_l/activation	glut_max_l/activation	iliopsoas_l/activation	rect_fem_l/activation	  vasti_l/activation	gastroc_l/activation	 soleus_l/activation	tib_ant_l/activation	
          1.84446126	         -6.55196669	          0.83178489	         -4.16107368	          2.06579661	          0.92855347	          0.01095628	         -9.28925528	         -0.31920566	         -5.67064327	        -10.65097545	          9.72961782	         32.22552473	         32.63077603	         -1.04495902	         -6.32404960	         -7.25232010	          0.28563961	          0.22708326	         -5.26938735	          0.50580129	          7.97609333	          0.11890303	          0.01000000	          0.01000001	          0.09438725	          0.01000009	          0.01000006	          0.27781048	          0.01690095	          0.66029309	          0.01451867	          0.01000001	          0.25626401	          0.40797595	          0.02539960	          0.19393415	          0.15911063	          0.01000003	          0.01000001	          0.29022462	          0.07033930	          0.12204698	          0.01443824	          0.12757359	          0.01202706	          0.01000001	          0.01000010	          0.01000000	          0.51837219	
          1.85675767	         -6.65809667	          0.76823085	         -4.19583784	          2.08238906	          0.92658926	          0.01010565	         -9.71852044	         -0.41667262	         -6.05455882	        -11.49196258	          8.84505851	         34.12323703	         32.97336718	         -0.91467630	         -6.24291511	         -9.25981192	         -0.00332928	          0.22358737	         -4.94693718	          0.16672456	          8.49117583	          0.17101127	          0.01000000	          0.01000000	          0.07833356	          0.01000017	          0.01000010	          0.24775331	          0.01451876	          0.68627021	          0.01204960	          0.01000002	          0.23197324	          0.38784015	          0.02107955	          0.17573082	          0.13204858	          0.01000003	          0.00999999	          0.42236232	          0.07349929	          0.10128885	          0.08035310	          0.10587546	          0.01000010	          0.01000001	          0.01451878	          0.01749426	          0.52473427	
          1.86905408	         -6.73807551	          0.75522262	         -4.21662184	          2.09949252	          0.92487032	          0.00922323	        -10.02618823	         -0.59770460	         -6.42672203	        -12.63465955	          7.81936625	         36.09087820	         33.09318389	         -0.82235009	         -5.97102586	        -11.21251623	         -0.21953639	          0.19406404	         -4.59094062	         -0.23733165	          8.96374959	          0.16307417	          0.01000000	          0.01000001	          0.06501033	          0.01000036	          0.01001405	          0.22981911	          0.01204939	          0.67298890	          0.01000025	          0.01000001	          0.19251849	          0.35968683	          0.01749428	          0.14584197	          0.10958934	          0.01000002	          0.02246168	          0.35052559	          0.07922843	          0.08406134	          0.10173079	          0.08786782	          0.01000001	          0.01000001	          0.01204961	          0.01451879	          0.56325920	
          1.88135048	         -6.79533129	          0.77948247	         -4.21340183	          2.11688521	          0.92346782	          0.00820630	        -10.13531880	         -0.85863130	         -6.80124204	        -14.18180762	          6.62665228	         38.12594635	         33.03946881	         -0.71428906	         -5.83955202	        -12.91946165	         -0.51664209	          0.17977468	         -4.22849562	         -0.67622906	          9.38395942	          0.16673092	          0.01000000	          0.01000001	          0.05395316	          0.01000010	          0.01000019	          0.20983524	          0.01000002	          0.63274745	          0.01000014	          0.01000000	          0.15977433	          0.33202795	          0.01451879	          0.15505023	          0.09095003	          0.01000002	          0.06139829	          0.33508016	          0.08006801	          0.06976393	          0.13066998	          0.07292298	          0.01000002	          0.02484730	          0.01000021	          0.01204939	          0.60288977	
          1.89364689	         -6.83061974	          0.82505272	         -4.18557180	          2.13436424	          0.92246217	          0.00706201	         -9.99399812	         -1.18780472	         -7.18778161	        -16.18980483	          5.21347105	         40.21078953	         32.88326330	         -0.59764317	         -5.86692290	        -14.48004709	         -0.82269650	          0.15266643	         -3.88320654	         -1.13179895	          9.74541233	          0.19852330	          0.01000000	          0.01000001	          0.04477663	          0.01000011	          0.01000022	          0.18765324	          0.01000001	          0.52898496	          0.01000009	          0.01000000	          0.13259939	          0.27700489	          0.01204939	          0.15518911	          0.07548096	          0.01000002	          0.10861652	          0.30992178	          0.07876908	          0.05789828	          0.15033967	          0.06052000	          0.01000001	          0.09087484	          0.01000003	          0.01000000	          0.64873077	
          1.90594330	         -6.84587183	          0.90010496	         -4.13731230	          2.15175935	          0.92198826	          0.00580978	         -9.57076706	         -1.59880132	         -7.59051520	        -18.67063343	          3.52751887	         42.23951245	         32.64176757	         -0.45483449	         -5.98242451	        -15.95499484	         -0.84291254	          0.11750278	         -3.56755833	         -1.61197908	         10.04633774	          0.23056894	          0.01000000	          0.01000001	          0.03716088	          0.01000030	          0.03555109	          0.16400732	          0.01000001	          0.43901349	          0.01000005	          0.01000000	          0.11004646	          0.22989100	          0.00999999	          0.15088403	          0.06264291	          0.01000002	          0.15954236	          0.27697654	          0.07906869	          0.04805078	          0.14057021	          0.05022656	          0.01000001	          0.16423733	          0.01000001	          0.01000000	          0.64252459	
          1.91823971	         -6.84506098	          1.00646317	         -4.07589754	          2.16889618	          0.92218612	          0.00446904	         -8.84159288	         -2.09844371	         -8.00098395	        -21.61964849	          1.56372370	         43.95480779	         32.30592009	         -0.26376056	         -6.08234555	        -17.34750483	         -0.32435273	          0.14138544	         -3.29228888	         -2.11540959	         10.29132226	          0.26214145	          0.01000000	          0.01000001	          0.03084044	          0.09812693	          0.11812141	          0.16522667	          0.01000000	          0.36434466	          0.01000002	          0.00999999	          0.09132940	          0.19079039	          0.01000001	          0.14016060	          0.05198840	          0.01000002	          0.20293605	          0.24391995	          0.07517566	          0.03987816	          0.12496322	          0.04168387	          0.01000001	          0.26082943	          0.01000004	          0.01000000	          0.56674776	
